<svg id="svg_insurance.svg" xmlns="http://www.w3.org/2000/svg" width="55" height="75.031" viewBox="0 0 55 75.031">
  <defs>
    <style>
      .cls-1 {
        fill: #404098;
      }

      .cls-1, .cls-2 {
        fill-rule: evenodd;
      }

      .cls-2 {
        fill: #b842a3;
      }
    </style>
  </defs>
  <path id="Shape_51_copy_2" data-name="Shape 51 copy 2" class="cls-1" d="M345.927,300.008a4.173,4.173,0,1,1-4.245,4.172A4.209,4.209,0,0,1,345.927,300.008Zm32.8,15a2.781,2.781,0,1,1-2.83,2.781A2.806,2.806,0,0,1,378.723,315.005Zm3.594,16.337H381.79l-1.3,12.716a0.967,0.967,0,0,1-1.028.945h-1.479a0.968,0.968,0,0,1-1.028-.945l-1.3-12.716H375.13a1.7,1.7,0,0,1-1.686-1.694l0.955-6.387a1.61,1.61,0,0,1,1.688-1.581h5.277a1.611,1.611,0,0,1,1.688,1.581l0.957,6.387A1.708,1.708,0,0,1,382.317,331.342Zm-31-6.83h-0.788l-1.948,19.075A1.452,1.452,0,0,1,347.039,345H344.82a1.449,1.449,0,0,1-1.543-1.417l-1.95-19.075h-0.788a2.557,2.557,0,0,1-2.533-2.541l1.435-9.58a2.416,2.416,0,0,1,2.531-2.373h7.912a2.418,2.418,0,0,1,2.534,2.373l1.439,9.58A2.559,2.559,0,0,1,351.321,324.512Zm11.265-22a3.94,3.94,0,1,1-4.011,3.94A3.978,3.978,0,0,1,362.586,302.508Zm5.092,28.805h-0.745l-1.842,12.352A1.37,1.37,0,0,1,363.635,345h-2.1a1.371,1.371,0,0,1-1.457-1.339l-1.841-12.352h-0.748a2.412,2.412,0,0,1-2.389-2.4l1.353-14.711a2.282,2.282,0,0,1,2.39-2.242h7.477a2.281,2.281,0,0,1,2.39,2.242l1.355,14.711A2.412,2.412,0,0,1,367.678,331.313Z" transform="translate(-338 -269.969)"/>
  <path id="Shape_52_copy_2" data-name="Shape 52 copy 2" class="cls-2" d="M368.278,272.574a0.33,0.33,0,0,1-.3-0.31v-0.7a1.513,1.513,0,0,0-1.213-1.548,1.484,1.484,0,0,0-1.82,1.471v0.773a0.351,0.351,0,0,1-.3.387A26.949,26.949,0,0,0,340,295.787a0.613,0.613,0,0,0,1.061.542,7.665,7.665,0,0,1,1.441-1.238,6.987,6.987,0,0,1,7.885.077,7.492,7.492,0,0,1,2.2,2.476,0.579,0.579,0,0,0,1.062,0,5.952,5.952,0,0,1,2.047-2.321,7.734,7.734,0,0,1,7.658-.387c0.195,0.124.387,0.254,0.573,0.386h-0.014a6.54,6.54,0,0,1,2.047,2.321,0.579,0.579,0,0,0,1.062,0,6.843,6.843,0,0,1,2.5-2.631l-0.027,0c0.078-.051.146-0.1,0.226-0.156a6.921,6.921,0,0,1,7.658.464,6.54,6.54,0,0,1,2.047,2.321,0.579,0.579,0,0,0,1.062,0,6.843,6.843,0,0,1,2.5-2.631,7.021,7.021,0,0,1,6.975-.232,10.427,10.427,0,0,1,1.972,1.548,0.623,0.623,0,0,0,1.061-.542A27.247,27.247,0,0,0,368.278,272.574Z" transform="translate(-338 -269.969)"/>
</svg>
